PathFileType	4	(X/Y/Z)	C:\Users\WrightLab\Desktop\Jo\P1.2Trial9.trc
DataRate	CameraRate	NumFrames	NumMarkers	Units	OrigDataRate	OrigDataStartFrame	OrigNumFrames
100.00	100.00	       18	19	mm	100.00	270	       538
Frame#	Time	Headset_Front			Headset_Back			Headset_Left			Headset_Right			Left_Shoulder			Right_Shoulder			Sternum			C7			Left Elbow			Right Elbow			Left Wrist			Right Wrist			Left ASIS			Right ASIS			S2			Left Knee			Right Knee			Left Ankle			Right Ankle			
		X1	Y1	Z1	X2	Y2	Z2	X3	Y3	Z3	X4	Y4	Z4	X5	Y5	Z5	X6	Y6	Z6	X7	Y7	Z7	X8	Y8	Z8	X9	Y9	Z9	X10	Y10	Z10	X11	Y11	Z11	X12	Y12	Z12	X13	Y13	Z13	X14	Y14	Z14	X15	Y15	Z15	X16	Y16	Z16	X17	Y17	Z17	X18	Y18	Z18	X19	Y19	Z19	

270	2.690	-76.74781	1439.50684	825.15308	-142.45068	1527.59656	540.75378	-6.38923	1486.05042	631.59210	-203.64824	1459.17029	746.70172	78.71469	1273.86523	520.43420	-307.34601	1275.56226	693.53577	-68.25433	1205.70911	713.57080	-161.91852	1333.95325	505.43979	146.09674	992.32196	462.43774	-411.60031	1035.22656	668.33398	273.95734	810.67896	554.32715	-458.19717	789.15564	764.68311	58.10757	900.62067	637.64331	-201.98853	883.44751	756.81244	-196.98987	942.82141	440.47818	38.70918	462.70435	613.80890	-174.92456	492.21249	840.34003	1.93729	106.32012	551.39648	-252.77902	192.45872	651.11621	
271	2.700	-72.48750	1439.56055	833.78204	-136.01544	1528.31628	548.83270	-0.62226	1486.93909	641.44824	-200.63756	1459.65820	754.13342	85.67953	1274.49597	529.17267	-304.71869	1279.31348	703.24493	-62.78600	1206.86938	721.32965	-155.52121	1334.59473	512.68225	155.78127	993.66791	473.54675	-406.42883	1036.23804	674.02130	285.16531	814.70789	569.11163	-455.22479	790.17090	768.42676	62.02655	901.36273	645.23236	-196.70528	884.52966	764.96399	-191.93658	943.20160	447.03345	39.43190	461.25693	614.70081	-163.64536	497.37894	851.19098	3.39915	107.52980	550.57782	-233.95268	188.28091	675.30829	
272	2.710	-67.82864	1439.26111	841.93915	-129.71220	1529.39026	556.77844	4.83284	1487.50391	650.46686	-195.84238	1459.87268	761.54688	91.96095	1275.17505	537.95337	-299.17276	1279.64209	710.15924	-56.72897	1207.49109	729.55469	-148.94830	1334.58093	520.24451	165.82196	994.60962	484.88187	-400.83398	1037.08032	680.22925	295.95984	818.59137	583.62146	-451.93433	790.99414	771.82184	64.96481	901.08105	652.33551	-191.06247	885.30786	772.71051	-187.27069	944.03802	454.55133	41.56045	460.44254	616.85260	-153.57481	502.09283	860.92273	3.92652	108.07399	550.61780	-215.01746	183.01622	696.25348	
273	2.720	-64.02856	1439.30127	850.08923	-123.87331	1530.17310	565.33685	9.35290	1486.47778	659.17603	-190.67311	1459.87927	768.77106	98.29491	1275.88379	547.26599	-293.44461	1280.11462	717.02710	-50.99533	1208.62939	738.27625	-142.04633	1334.96033	527.98236	174.95952	995.51666	496.05814	-395.36008	1037.57568	686.62152	306.52823	822.19379	597.47314	-448.48373	791.66473	775.45978	69.07726	901.85974	659.88428	-185.22990	885.46136	780.71387	-182.46281	944.04077	461.85703	43.84713	459.85275	619.58978	-143.11584	506.46509	869.92316	3.69366	108.25362	550.70538	-197.21877	178.53311	718.67914	
274	2.730	-59.89699	1438.85730	858.17596	-117.81717	1530.71924	573.38684	14.87254	1487.01990	667.65393	-185.87006	1459.73755	776.21106	104.80816	1275.43054	555.98840	-288.05002	1280.44141	724.39764	-44.57197	1208.73010	746.52582	-136.35457	1335.70215	534.90009	183.90500	996.38104	505.91913	-390.44714	1038.23022	693.10162	315.89093	825.06036	612.78876	-444.86520	792.00385	779.04388	72.22088	901.54596	667.26532	-180.70854	886.10284	788.13232	-178.07057	944.30072	469.29224	45.31807	458.93649	621.10529	-133.81949	510.01071	878.30719	3.54909	108.48093	551.14917	-179.39616	174.85562	741.84821	
275	2.740	-56.80151	1438.94275	867.04987	-111.64243	1530.84387	581.42126	20.34525	1486.99377	676.50134	-181.12930	1459.43347	783.58905	110.69341	1275.65259	564.33856	-282.46436	1280.68066	731.33673	-40.38651	1208.19836	753.77917	-129.46378	1335.72412	542.73193	192.56027	996.46271	516.98474	-385.70346	1038.74341	699.38062	324.85803	827.38538	626.03534	-441.68723	792.80060	782.65802	75.96828	901.63165	673.64557	-175.93634	886.40759	796.92480	-173.26468	944.39154	476.57758	47.78497	457.12228	624.06299	-124.69717	512.50909	886.21368	3.55568	108.37487	551.31305	-161.45662	171.06827	765.90967	
276	2.750	-52.17122	1438.14136	875.18567	-105.40892	1530.83740	589.47272	25.74770	1487.09314	684.84991	-176.46735	1459.09290	790.83606	116.79745	1275.36475	573.43671	-277.35165	1280.30115	738.93457	-35.05311	1207.90881	762.18518	-123.64504	1335.40369	550.49567	200.86760	996.26404	528.50909	-380.63037	1038.65039	705.58862	333.76093	829.57074	639.63910	-438.00186	793.07806	786.82489	80.06208	901.83673	681.83014	-170.15939	886.27844	803.64459	-168.79388	944.57056	484.17053	50.45795	457.01895	627.42395	-114.90541	515.11084	893.38446	2.97320	107.74272	551.65961	-143.47131	167.48454	789.06689	
277	2.760	-48.52987	1438.14917	883.44183	-99.47224	1530.66858	597.55280	31.31808	1486.71667	693.37616	-172.00539	1458.55518	798.44519	122.43687	1275.09912	582.43750	-272.61423	1280.19019	746.58032	-29.42549	1207.38831	770.44550	-117.35171	1334.48877	559.81665	208.66792	996.56116	538.66150	-375.11197	1038.40356	711.69934	342.20920	831.58722	654.19244	-434.30811	793.43298	791.60663	83.64717	900.61694	688.16840	-165.47656	886.01715	813.08380	-164.29958	944.18439	491.78180	53.36260	455.79205	630.48389	-106.05763	515.89697	899.87622	3.00678	107.68153	552.41193	-125.65576	164.12195	812.86536	
278	2.770	-44.33786	1437.71179	891.91302	-93.28393	1530.23657	605.62708	36.50279	1486.81775	701.69489	-167.19571	1458.11084	805.64636	128.44151	1274.52991	591.12689	-266.71439	1279.79675	754.00513	-24.12525	1206.88696	778.76599	-111.69446	1334.23999	568.09271	216.09859	996.48700	548.41571	-369.79636	1038.07202	717.85376	350.51657	833.50873	666.97852	-431.14990	793.70306	796.67920	87.83684	900.76910	696.57489	-160.49216	885.33685	821.13623	-160.03896	943.69281	499.14523	56.36616	454.19388	634.31354	-96.19832	516.96692	905.30756	3.01755	107.93113	552.48920	-108.07877	161.41313	837.57532	
279	2.780	-41.14086	1437.24304	900.91565	-87.19250	1529.47437	613.76984	41.76118	1486.07397	710.68958	-162.42410	1457.61792	813.10394	134.15611	1273.44604	599.21722	-261.27280	1278.82642	761.80719	-19.33465	1206.25952	787.60413	-106.58605	1334.76367	575.66974	223.21606	995.78693	559.90381	-364.47333	1037.87073	724.87988	358.20129	835.13586	679.93359	-427.51086	793.82709	802.24817	92.14386	899.97888	703.93622	-155.22646	884.99579	829.64807	-155.81062	942.98413	506.81296	59.22215	452.90771	638.19415	-87.38279	516.48700	911.29547	3.68075	108.49049	552.00702	-90.43925	159.50177	861.87976	
280	2.790	-37.67976	1436.66516	909.53668	-81.16607	1528.53601	622.04541	47.34782	1484.98804	719.86108	-158.07904	1456.94116	820.99652	139.74718	1272.66064	607.79517	-256.13644	1278.26733	769.81604	-13.85201	1205.12878	795.97998	-100.28921	1333.33289	585.41351	230.14392	995.24036	571.08813	-358.57004	1037.17969	731.62256	365.85895	836.98212	693.59619	-424.34616	793.66254	807.86224	96.92764	898.71271	710.91711	-149.96468	884.35681	837.36890	-151.20160	942.36261	514.75525	62.04422	452.15570	642.68066	-79.83085	515.57599	917.03497	4.13147	108.69306	552.11462	-72.79639	158.84338	886.48700	
281	2.800	-34.10757	1436.04260	918.18683	-75.22044	1527.49915	630.34668	52.35285	1484.26099	728.22217	-153.76669	1456.16028	828.88464	145.24391	1272.18848	618.22400	-250.69682	1277.06470	777.73761	-9.09166	1204.42505	804.38556	-95.14509	1333.40564	592.68695	236.50468	994.85583	580.86292	-353.51508	1036.20227	738.16943	373.33545	838.60443	706.32141	-420.76587	793.49561	813.83612	101.21996	897.97107	718.53131	-144.67227	882.97247	846.13910	-146.76114	941.94043	522.76068	66.63379	452.40219	647.94385	-72.33666	513.43994	922.28534	4.31131	108.98877	552.80548	-54.99078	158.09306	910.29346	
282	2.810	-30.91729	1435.32959	927.23572	-69.35069	1526.39270	638.73206	57.16093	1483.32703	737.28320	-149.54306	1455.46960	837.02979	150.51917	1270.94763	626.85431	-246.03319	1276.16492	786.34387	-4.28285	1202.96411	813.32172	-89.16296	1331.66003	602.53986	242.71791	993.46857	591.77313	-348.52432	1035.36768	745.34808	379.96939	839.59900	718.80396	-417.26904	793.61377	820.22064	106.19651	897.54889	727.13135	-139.57565	881.97247	854.79242	-142.56049	941.61310	530.42352	70.06837	450.86353	652.79584	-65.49648	510.58411	927.30396	4.69190	109.10240	553.45349	-38.00849	159.00905	933.09808	
283	2.820	-27.36147	1434.32312	935.93262	-63.52906	1525.03601	647.27332	62.37139	1482.03259	746.49750	-145.36914	1454.32581	844.35168	155.73456	1269.64868	635.74298	-241.15280	1274.91016	794.64691	0.92465	1201.87292	822.16595	-84.23470	1331.51294	610.30212	248.71791	992.42230	603.63330	-343.33902	1034.34277	752.96851	386.18301	840.64484	731.41284	-414.11032	792.91882	827.23370	110.91447	895.97296	735.95557	-133.92970	880.49225	864.25653	-137.90077	940.77753	538.95880	75.14421	449.92526	658.13538	-58.57768	506.43936	932.08478	4.39336	108.58262	553.78217	-23.00699	161.20438	955.11230	
284	2.830	-23.86067	1433.09802	944.78094	-57.70588	1523.67603	655.74182	67.53165	1482.04761	761.62115	-141.62006	1452.99622	852.23621	160.79060	1268.22913	645.19714	-236.06352	1273.61951	803.19525	5.80099	1200.42773	830.79553	-79.01313	1330.12061	619.10742	254.11746	990.96674	613.78143	-338.41339	1033.94727	760.79480	392.64090	840.93256	743.90778	-410.88962	792.61816	834.88721	115.45210	894.43140	743.31451	-128.45357	878.90479	872.98175	-133.90045	940.15881	547.03906	78.83225	448.29559	664.03638	-52.48546	502.86685	937.09192	4.17743	109.93752	554.06390	-8.32632	164.70206	975.29425	
285	2.840	-21.53442	1432.02637	954.11774	-51.97869	1522.12500	664.37195	72.51070	1480.41382	771.98535	-137.66364	1451.45715	860.17664	165.74139	1267.20886	654.27191	-230.60326	1272.71936	811.83759	11.19253	1199.04968	839.56287	-73.78646	1328.90381	628.41968	259.48657	989.74951	624.25336	-333.69473	1032.26978	769.22778	398.33536	841.10394	756.58777	-407.84485	792.36810	842.37921	119.62218	892.51831	751.32465	-123.21768	877.94781	880.98138	-129.11932	938.99005	556.12335	83.74783	446.65231	669.99115	-46.38597	498.62427	942.58862	5.18925	110.75721	555.13867	5.55404	168.34258	995.03827	
286	2.850	-18.30071	1430.54688	963.23059	-46.20505	1520.49402	672.98993	76.97966	1478.86792	781.64844	-133.99815	1450.14929	868.18573	170.57767	1265.79041	663.82391	-225.34596	1270.79480	820.66882	16.54415	1197.10120	849.05878	-68.86973	1327.43079	636.82129	263.82706	988.52203	635.53943	-328.85748	1030.92407	777.46649	403.40054	840.95642	768.10248	-404.48715	791.66132	850.66479	124.96027	891.25494	760.50281	-118.00581	876.26495	891.38470	-124.66441	937.99762	565.03046	88.27155	445.05096	676.43359	-40.59679	494.79190	948.27393	5.16779	110.90176	555.91907	19.15913	173.28952	1013.22021	
287	2.860	-15.66092	1428.98364	972.11505	-40.69456	1518.60706	681.89801	81.17845	1476.99475	791.69324	-130.12093	1448.39355	875.94916	175.49274	1264.37268	672.84265	-221.81424	1269.95203	830.30377	21.08331	1196.08630	858.08569	-64.52265	1325.63550	646.48486	268.95959	986.83398	645.82739	-324.36383	1030.05115	786.42670	408.62662	840.56940	779.85266	-401.60779	791.12329	860.03448	130.23405	890.20667	769.97620	-113.06344	874.83496	900.41406	-120.17448	936.68756	573.94922	93.67905	443.28091	683.04626	-34.07349	491.27890	954.42407	5.52367	111.50123	556.46680	30.61949	179.93565	1031.14441	
